<svg id="Layer_1" data-name="Layer 1" xmlns="http://www.w3.org/2000/svg" viewBox="0 0 50 50"><defs><style>.cls-1{fill:#fff;fill-rule:evenodd;}</style></defs><title>GitLogo-white</title><path class="cls-1" d="M25,.14C11.19.14,0,11.58,0,25.7A25.52,25.52,0,0,0,17.1,50c1.25.23,1.7-.56,1.7-1.24s0-2.21,0-4.34C11.82,45.92,10.35,41,10.35,41c-1.14-3-2.78-3.74-2.78-3.74-2.27-1.58.17-1.55.17-1.55a5.26,5.26,0,0,1,3.83,2.63c2.23,3.91,5.86,2.78,7.28,2.13A5.48,5.48,0,0,1,20.44,37c-5.55-.65-11.39-2.84-11.39-12.63a10,10,0,0,1,2.57-6.86,9.46,9.46,0,0,1,.25-6.77s2.1-.69,6.87,2.62a23.21,23.21,0,0,1,12.52,0c4.77-3.31,6.87-2.62,6.87-2.62a9.46,9.46,0,0,1,.25,6.77A10,10,0,0,1,41,24.37c0,9.81-5.85,12-11.42,12.61a6.16,6.16,0,0,1,1.7,4.73c0,3.42,0,6.18,0,7s.45,1.48,1.72,1.23A25.52,25.52,0,0,0,50,25.7C50,11.58,38.81.14,25,.14Z"/></svg>