<svg id="Layer_1" data-name="Layer 1" xmlns="http://www.w3.org/2000/svg" viewBox="0 0 640 640"><defs><style>.cls-1{fill:#df0016;}.cls-1,.cls-2{fill-rule:evenodd;}.cls-2{fill:#fff;}</style></defs><title>min-hh-red</title><path class="cls-1" d="M311.12,404a100,100,0,1,0-100-100,100,100,0,0,0,100,100Zm0,0"/><path class="cls-2" d="M267,256.87v34q7.77-9.27,18.58-9.29a23,23,0,0,1,10,2.12,16.27,16.27,0,0,1,6.73,5.36,19.68,19.68,0,0,1,3.1,7.25,66.21,66.21,0,0,1,.82,12.31V345H290.15V312.25c0-6.5-.29-10.62-.9-12.37a8,8,0,0,0-3.23-4.16,10.11,10.11,0,0,0-5.81-1.57,13,13,0,0,0-7.14,2,11.36,11.36,0,0,0-4.62,6Q267,306.14,267,314L267,345H250.91V256.87H267"/><path class="cls-2" d="M330.36,256.87v34q7.77-9.27,18.59-9.29a23.2,23.2,0,0,1,10,2.12,16.34,16.34,0,0,1,6.71,5.36,19.5,19.5,0,0,1,3.09,7.25,65.15,65.15,0,0,1,.83,12.31V345H353.53V312.25q0-9.75-.92-12.37a7.92,7.92,0,0,0-3.24-4.16,10.07,10.07,0,0,0-5.81-1.57,13,13,0,0,0-7.13,2,11.49,11.49,0,0,0-4.61,6q-1.45,4-1.46,11.82V345H314.29V256.87h16.07"/></svg>