<svg id="Layer_1" data-name="Layer 1" xmlns="http://www.w3.org/2000/svg" viewBox="0 0 640 640"><defs><style>.cls-1{fill:#094c11;opacity:0.87;}.cls-2{fill:#65e070;opacity:0.36;}.cls-3,.cls-6,.cls-7{fill:#fff;}.cls-3{opacity:0.54;}.cls-4{fill:#ad1c1c;opacity:0.9;}.cls-5{fill:#cc1717;opacity:0.83;}.cls-7{stroke:#000;stroke-miterlimit:10;stroke-width:2px;}</style></defs><title>my-logo</title><circle class="cls-1" cx="360.15" cy="316.09" r="218.5"/><circle class="cls-2" cx="398.65" cy="386.59" r="185"/><circle class="cls-3" cx="371.15" cy="263.09" r="96.5"/><circle class="cls-3" cx="487.15" cy="379.09" r="96.5"/><circle class="cls-3" cx="382.15" cy="472.09" r="96.5"/><circle class="cls-4" cx="238.65" cy="315.59" r="168"/><circle class="cls-5" cx="382.15" cy="214.09" r="151.5"/><circle cx="360.65" cy="316.59" r="175"/><path class="cls-6" d="M434.84,246.45V405.06H276.22V246.45H434.84m8.94-8.94H267.29V414H443.78V237.51Z"/><path class="cls-7" d="M370.68,366.44l-9.92-25.36h-32L319,366.44H309.6l31.52-80.07h7.8l31.37,80.07Zm-12.8-33.71L348.61,308q-1.82-4.69-3.71-11.51A105.75,105.75,0,0,1,341.46,308l-9.39,24.71Z"/><path class="cls-7" d="M389.11,290.46a6,6,0,0,1,1.52-4.56,5.39,5.39,0,0,1,3.82-1.45,5.31,5.31,0,0,1,3.75,1.47,7.29,7.29,0,0,1,0,9.09,5.53,5.53,0,0,1-7.57,0A6.16,6.16,0,0,1,389.11,290.46Zm9.83,76h-9.05V306.65h9.05Z"/></svg>