<svg id="Layer_1" data-name="Layer 1" xmlns="http://www.w3.org/2000/svg" viewBox="0 0 640 640"><defs><style>.cls-1{fill:#094c11;opacity:0.87;}.cls-2{fill:#65e070;opacity:0.36;}.cls-3{fill:#fff;opacity:0.54;}.cls-4{fill:#ad1c1c;opacity:0.9;}.cls-5{fill:#cc1717;opacity:0.83;}.cls-6{fill:none;stroke:#fff;stroke-linecap:round;stroke-linejoin:round;stroke-width:5px;}</style></defs><title>my-logo</title><circle class="cls-1" cx="353.15" cy="319.09" r="218.5"/><circle class="cls-2" cx="391.65" cy="389.59" r="185"/><circle class="cls-3" cx="364.15" cy="266.09" r="96.5"/><circle class="cls-3" cx="480.15" cy="382.09" r="96.5"/><circle class="cls-3" cx="375.15" cy="475.09" r="96.5"/><circle class="cls-4" cx="231.65" cy="318.59" r="168"/><circle class="cls-5" cx="375.15" cy="217.09" r="151.5"/><circle cx="353.65" cy="319.59" r="175"/><line class="cls-6" x1="276.22" y1="340.74" x2="444.6" y2="340.74"/><line class="cls-6" x1="292.27" y1="301.31" x2="328.84" y2="339.18"/><line class="cls-6" x1="339.7" y1="303.08" x2="374.69" y2="339.36"/><line class="cls-6" x1="389.58" y1="301.67" x2="424.76" y2="339.18"/><path class="cls-6" d="M438.93,411H280.18a5.68,5.68,0,0,1-5.67-5.67V300.44H444.6V405.33A5.68,5.68,0,0,1,438.93,411Z"/><line class="cls-6" x1="278.11" y1="256.21" x2="325.24" y2="279.67"/><line class="cls-6" x1="323.41" y1="242.01" x2="368.51" y2="264.51"/><line class="cls-6" x1="369.94" y1="224.01" x2="415.64" y2="247.61"/><path class="cls-6" d="M265.37,258.14l149.4-53.68a5.69,5.69,0,0,1,7.25,3.42l12.49,34.68L274.43,300.07,262,265.39A5.68,5.68,0,0,1,265.37,258.14Z"/></svg>