<svg id="Layer_1" data-name="Layer 1" xmlns="http://www.w3.org/2000/svg" viewBox="0 0 640 640"><defs><style>.cls-1{fill:#094c11;opacity:0.87;}.cls-2{fill:#65e070;opacity:0.36;}.cls-3,.cls-6{fill:#fff;}.cls-3{opacity:0.54;}.cls-4{fill:#ad1c1c;opacity:0.9;}.cls-5{fill:#cc1717;opacity:0.83;}</style></defs><title>my-logo</title><circle class="cls-1" cx="341.15" cy="319.09" r="218.5"/><circle class="cls-2" cx="379.65" cy="389.59" r="185"/><circle class="cls-3" cx="352.15" cy="266.09" r="96.5"/><circle class="cls-3" cx="468.15" cy="382.09" r="96.5"/><circle class="cls-3" cx="363.15" cy="475.09" r="96.5"/><circle class="cls-4" cx="219.65" cy="318.59" r="168"/><circle class="cls-5" cx="363.15" cy="217.09" r="151.5"/><circle cx="341.65" cy="319.59" r="175"/><path class="cls-6" d="M352.52,308.36a3.11,3.11,0,0,0-4.17,1.35l-20.76,40.58a3.1,3.1,0,1,0,5.51,2.83l20.77-40.58A3.1,3.1,0,0,0,352.52,308.36Z"/><path class="cls-6" d="M374.25,306.81a3.1,3.1,0,0,0-4.38,4.39L389.67,331l-19.8,19.8a3.1,3.1,0,1,0,4.38,4.38l22-22a3.09,3.09,0,0,0,0-4.38Z"/><path class="cls-6" d="M311.65,306.82a3.08,3.08,0,0,0-4.38,0l-22,22a3.13,3.13,0,0,0,0,4.39l22,22a3.09,3.09,0,0,0,4.38,0,3.1,3.1,0,0,0,0-4.38L291.85,331l19.8-19.79A3.1,3.1,0,0,0,311.65,306.82Z"/><path class="cls-6" d="M435.55,222.49H246a3.1,3.1,0,0,0-3.1,3.1V391.25a3.1,3.1,0,0,0,3.1,3.1H435.55a3.1,3.1,0,0,0,3.1-3.1V225.59A3.1,3.1,0,0,0,435.55,222.49Zm-3.1,6.2v39H249.07v-39ZM249.07,388.15V273.86H432.45V388.15Z"/><path class="cls-6" d="M265.47,250.25h14.24a3.1,3.1,0,1,0,0-6.2H265.47a3.1,3.1,0,0,0,0,6.2Z"/><path class="cls-6" d="M296,250.25h14.23a3.1,3.1,0,1,0,0-6.2H296a3.1,3.1,0,0,0,0,6.2Z"/></svg>