<svg id="Layer_1" data-name="Layer 1" xmlns="http://www.w3.org/2000/svg" viewBox="0 0 640 640"><defs><style>.cls-1{fill:#094c11;opacity:0.87;}.cls-2{fill:#65e070;opacity:0.36;}.cls-3,.cls-6{fill:#fff;}.cls-3{opacity:0.54;}.cls-4{fill:#ad1c1c;opacity:0.9;}.cls-5{fill:#cc1717;opacity:0.83;}</style></defs><title>PrLanLogo</title><circle class="cls-1" cx="343.15" cy="304.09" r="218.5"/><circle class="cls-2" cx="381.65" cy="374.59" r="185"/><circle class="cls-3" cx="354.15" cy="251.09" r="96.5"/><circle class="cls-3" cx="470.15" cy="367.09" r="96.5"/><circle class="cls-3" cx="365.15" cy="460.09" r="96.5"/><circle class="cls-4" cx="221.65" cy="303.59" r="168"/><circle class="cls-5" cx="365.15" cy="202.09" r="151.5"/><circle cx="343.65" cy="304.59" r="175"/><path class="cls-6" d="M365.26,199.76a4.9,4.9,0,0,0-1.37.41c-3.78,1.87-8.07,7.43-8.89,8.53a2.43,2.43,0,0,0-.14.2,39.41,39.41,0,0,0-6.59,21.52,43.56,43.56,0,0,0,3.38,17.09A52.81,52.81,0,0,0,381.36,276l1.64.58c.07,0,.72.24.83.26l.48.17a17.79,17.79,0,0,0,2.07.58,60.17,60.17,0,0,0,10.08,1.2l1.64,0c24.08,0,33.41-17,36.52-22.65.31-.55.53-1,.73-1.27,0,0,0,0,0,0a4.39,4.39,0,1,0-7.26-4.94h0c-6.42,9.45-17.4,12.32-32.62,8.54a31.08,31.08,0,0,1-3.47-1.11,44.05,44.05,0,0,1-4.22-1.77,44.92,44.92,0,0,1-7.43-4.65c-13.38-10.38-18.62-32-10.79-44.46a4.39,4.39,0,0,0-4.31-6.69Zm-38.91,8.75a4.34,4.34,0,0,0-2.84,1c-6.64,5.41-13.43,14.26-13.72,14.62l-.12.19c-12,17.49-12.92,42.37-2.3,63.39a78.32,78.32,0,0,0,5.56,9.42l.6.85a40.56,40.56,0,0,0,6,7.5c.84,1,1.75,1.89,2.64,2.78l.43.45.36.36c.91.87,1.84,1.77,2.8,2.62h0a1.28,1.28,0,0,0,.26.26c1.08,1,2.18,1.87,3.64,3l.39.29c1.14.91,2.29,1.77,3.47,2.61l.36.26c.41.27.82.53,1.23.82l.42.28.48.31c.87.58,1.73,1.11,2.95,1.81.79.49,1.63,1,2.18,1.24l1.1.6,1.33.7.45.21c.88.45,1.78.88,2.69,1.29l1.39.61c.91.4,1.84.78,3,1.21l.52.18a5.16,5.16,0,0,0,.49.21l2.51.86,1.92.63a20.08,20.08,0,0,0,3.3.91,105.46,105.46,0,0,0,17.31,1.51h1.94c48.49-1.07,61.1-42.27,61.22-42.68a4.39,4.39,0,0,0-7.84-3.7c-12.29,17.94-35.52,25.53-59.18,19.28-1.1-.27-2.16-.58-3.48-1l-.78-.27c-.77-.25-1.52-.5-2.38-.83l-1.22-.46c-.7-.28-1.41-.55-2.26-.93l-.57-.26c-1.05-.44-2.06-.94-3-1.39l-2.5-1.3a19.89,19.89,0,0,1-1.84-1.05l-.43-.24-.43-.25c-.63-.38-1.27-.78-1.85-1.19l-.41-.26a3.52,3.52,0,0,1-.42-.29l-1.49-1c-1.06-.75-2.11-1.54-3.33-2.5l-.48-.4a70.55,70.55,0,0,1-23.63-34.08c-3.65-11.89-.94-27.45,7.26-41.62a4.36,4.36,0,0,0-1-5.54A4.29,4.29,0,0,0,326.35,208.51ZM278,221.69a4.38,4.38,0,0,0-2.95,1.13,96.76,96.76,0,0,0-15.36,18.41c-17.95,26.13-14.48,66.75-2.16,91.58.24.51.5,1,.75,1.51l.18.27a10,10,0,0,0,.56,1.12,4.64,4.64,0,0,0,.43.79c.21.43.41.8.79,1.45l1.41,2.42.48.79c.27.45.56.91.85,1.38l.69,1.09a8.94,8.94,0,0,0,.55.79c.69,1.07,1.37,2.13,2.13,3.14a.42.42,0,0,0,.1.12l.28.38c.61.89,1.25,1.75,1.81,2.45l2.51,3.18.33.39.36.42c.75.92,1.56,1.85,2.36,2.74l.36.4,2.39,2.55.79.76c.65.68,1.3,1.35,2,2l.32.32.69.64c.82.79,1.68,1.58,2.33,2.13,0,.05.66.58.71.61.8.72,1.61,1.41,2.43,2.08l4.21,3.33,2.25,1.63c.27.21.56.41.85.6a2.83,2.83,0,0,0,.35.26l3.15,2.11c1.15.75,2.3,1.46,3.71,2.3l.76.43c.87.51,1.76,1,2.6,1.47.5.28,1,.52,1.43.74.6.33,1.25.69,2.25,1.17.08.05.79.39.87.43,1,.49,2,1,3.28,1.52a4,4,0,0,0,.41.21c1.17.5,2.3,1,3.79,1.58l.53.2c1.07.41,2.18.83,3.09,1.15l.64.26c1.22.41,2.42.81,4,1.29.26.08.53.17.57.17l.87.27a32.81,32.81,0,0,0,3.28.9,132.83,132.83,0,0,0,23.7,2.26h0c62.93,0,83-50.64,83.17-51.15a4.4,4.4,0,0,0-7.62-4.22c-16.14,21.26-46.6,29.15-81.47,21.14-.84-.21-1.69-.45-2.54-.71l-1.64-.49c-1.12-.35-2.23-.72-3.31-1.1l-.52-.19c-1-.33-1.92-.7-2.76-1l-1-.38c-1.07-.43-2.13-.87-3.16-1.34l-.6-.25c-.93-.43-1.82-.84-2.71-1.29-.07,0-.77-.38-.84-.39-.62-.31-1.24-.64-2-1.07l-3.58-1.92A12.65,12.65,0,0,0,321,348c-1.08-.67-2.2-1.34-3.3-2-.25-.16-.48-.33-.91-.62-.75-.48-1.49-1-2.57-1.73l-.43-.31c-.74-.52-1.46-1.07-2.06-1.51-.37-.28-.75-.59-1.37-1.05s-1.1-.84-1.61-1.25l-1-.79c-.81-.65-1.56-1.34-2.35-2a3.88,3.88,0,0,0-.31-.26c-.88-.8-1.77-1.61-2.83-2.62l-3.11-3.09c-.76-.77-1.51-1.56-2.37-2.51s-1.54-1.75-2.55-2.95L292.42,323a11.83,11.83,0,0,0-.75-1c-.64-.86-1.27-1.7-1.91-2.59-17.09-23.54-21.55-72.68-8.23-90.68a4.41,4.41,0,0,0-.59-5.87A4.3,4.3,0,0,0,278,221.69Z"/></svg>