<svg id="Layer_1" data-name="Layer 1" xmlns="http://www.w3.org/2000/svg" viewBox="0 0 640 640"><defs><style>.cls-1{fill:#094c11;opacity:0.87;}.cls-2{fill:#65e070;opacity:0.36;}.cls-3,.cls-9{fill:#fff;}.cls-3{opacity:0.54;}.cls-4{fill:#ad1c1c;opacity:0.9;}.cls-5{fill:#cc1717;opacity:0.83;}.cls-6{fill:#264de4;}.cls-7{fill:#2965f1;}.cls-8{fill:#ebebeb;}</style></defs><title>PrLanLogo</title><circle class="cls-1" cx="353.15" cy="319.09" r="218.5"/><circle class="cls-2" cx="391.65" cy="389.59" r="185"/><circle class="cls-3" cx="364.15" cy="266.09" r="96.5"/><circle class="cls-3" cx="480.15" cy="382.09" r="96.5"/><circle class="cls-3" cx="375.15" cy="475.09" r="96.5"/><circle class="cls-4" cx="231.65" cy="318.59" r="168"/><circle class="cls-5" cx="375.15" cy="217.09" r="151.5"/><circle cx="353.65" cy="319.59" r="175"/><path class="cls-6" d="M354.78,437.33l-73.92-20.48L264.39,232.44h181L428.9,416.82l-74.12,20.51Z"/><path class="cls-7" d="M414.78,405.08l14.09-157.56h-74V421.65l59.89-16.57Z"/><path class="cls-8" d="M302.15,315.91l2,22.62h50.71V315.91Z"/><path class="cls-8" d="M298.07,270.14l2.06,22.61h54.76V270.14Z"/><path class="cls-8" d="M354.89,374.65l-.1,0-25.24-6.8-1.61-18H305.2l3.17,35.51,46.42,12.86.1,0V374.65Z"/><path class="cls-9" d="M307,182.33h27.44v11.45h-16v11.46h16v11.45H307V182.33Z"/><path class="cls-9" d="M339.92,182.33h27.44v10h-16v2h16v22.91H339.92V206.73h16v-2h-16V182.33Z"/><path class="cls-9" d="M372.85,182.33H400.3v10h-16v2h16v22.91H372.85V206.73h16v-2h-16V182.33Z"/><path class="cls-9" d="M407.48,315.91l4.09-45.77H354.81v22.61h31.93l-2.06,23.16H354.81v22.62h27.9l-2.63,29.33-25.27,6.81V398.2l46.45-12.85.35-3.82L406.93,322l.55-6.08Z"/></svg>