<svg id="Layer_1" data-name="Layer 1" xmlns="http://www.w3.org/2000/svg" viewBox="0 0 640 640"><defs><style>.cls-1{fill:#094c11;opacity:0.87;}.cls-2{fill:#65e070;opacity:0.36;}.cls-3,.cls-9{fill:#fff;}.cls-3{opacity:0.54;}.cls-4{fill:#ad1c1c;opacity:0.9;}.cls-5{fill:#cc1717;opacity:0.83;}.cls-6{fill:#e44d26;}.cls-7{fill:#f16529;}.cls-8{fill:#ebebeb;}</style></defs><title>PrLanLogo</title><circle class="cls-1" cx="341.15" cy="319.09" r="218.5"/><circle class="cls-2" cx="379.65" cy="389.59" r="185"/><circle class="cls-3" cx="352.15" cy="266.09" r="96.5"/><circle class="cls-3" cx="468.15" cy="382.09" r="96.5"/><circle class="cls-3" cx="363.15" cy="475.09" r="96.5"/><circle class="cls-4" cx="219.65" cy="318.59" r="168"/><circle class="cls-5" cx="363.15" cy="217.09" r="151.5"/><circle cx="341.65" cy="319.59" r="175"/><path class="cls-6" d="M437.08,237.94,420.59,422.32l-74.12,20.51-73.92-20.48L256.08,237.94Z"/><path class="cls-7" d="M346.58,427.15l59.89-16.57L420.56,253h-74V427.15Z"/><path class="cls-8" d="M314.52,298.25h32.06V275.64H289.76l.54,6.06L295.87,344h50.71V321.41h-30l-2.07-23.16Z"/><path class="cls-8" d="M319.63,355.34H296.88l3.18,35.51,46.41,12.86.11,0V380.15l-.1,0-25.24-6.8-1.61-18Z"/><path class="cls-9" d="M272.92,187.83h11.51v11.35H295V187.83h11.51v34.39H295V210.7H284.43v11.52H272.92V187.83Z"/><path class="cls-9" d="M321.62,199.23H311.49v-11.4h31.79v11.4H333.14v23H321.62v-23Z"/><path class="cls-9" d="M348.33,187.83h12l7.38,12.08,7.38-12.08h12v34.39H375.64V205.17l-7.92,12.23h-.2l-7.92-12.23v17.05H348.33V187.83Z"/><path class="cls-9" d="M392.84,187.83h11.52v23h16.19v11.37H392.84V187.83Z"/><path class="cls-9" d="M346.5,344h27.9l-2.63,29.33-25.27,6.81V403.7L393,390.85l.34-3.82,5.33-59.54.55-6.08H346.5V344Z"/><path class="cls-9" d="M346.5,298.2v.05h54.73l.46-5.08,1-11.47.54-6.06H346.5V298.2Z"/></svg>