<svg id="Layer_1" data-name="Layer 1" xmlns="http://www.w3.org/2000/svg" viewBox="0 0 640 640"><defs><style>.cls-1{fill:#094c11;opacity:0.87;}.cls-2{fill:#65e070;opacity:0.36;}.cls-3{fill:#fff;opacity:0.54;}.cls-4{fill:#ad1c1c;opacity:0.9;}.cls-5{fill:#cc1717;opacity:0.83;}.cls-6{fill:#f7df1e;}</style></defs><title>PrLanLogo</title><circle class="cls-1" cx="360.15" cy="316.09" r="218.5"/><circle class="cls-2" cx="398.65" cy="386.59" r="185"/><circle class="cls-3" cx="371.15" cy="263.09" r="96.5"/><circle class="cls-3" cx="487.15" cy="379.09" r="96.5"/><circle class="cls-3" cx="382.15" cy="472.09" r="96.5"/><circle class="cls-4" cx="238.65" cy="315.59" r="168"/><circle class="cls-5" cx="382.15" cy="214.09" r="151.5"/><circle cx="360.65" cy="316.59" r="175"/><rect class="cls-6" x="248.68" y="204.7" width="222.3" height="222.3" rx="33.34"/><path d="M389.35,365.35c4.35,7.38,10.42,12.59,20.41,12.59,8.68,0,14.33-4.34,14.33-10.42,0-6.95-5.65-9.55-15.2-13.9l-5.21-2.17c-15.19-6.51-25.18-14.32-25.18-31.26,0-15.63,11.72-27.78,30.39-27.78,13.46,0,23,4.77,29.53,16.93l-16.07,10.42c-3.47-6.51-7.38-9.12-13.46-9.12s-10,3.91-10,9.12c0,6.08,3.9,8.68,13,12.59l5.21,2.17c17.8,7.82,27.79,15.2,27.79,33,0,18.67-14.76,29.09-34.74,29.09-19.53,0-32.12-9.12-38.2-21.28Zm-73.81,1.73c3.48,5.65,6.08,10.86,13.46,10.86,6.95,0,11.29-2.61,11.29-13V292.84h20.84V364c0,21.71-12.59,31.27-31.26,31.27-16.93,0-26.48-8.69-31.26-19.11Z"/></svg>