<svg id="Layer_1" data-name="Layer 1" xmlns="http://www.w3.org/2000/svg" xmlns:xlink="http://www.w3.org/1999/xlink" viewBox="0 0 640 640"><defs><style>.cls-1,.cls-2{fill:none;}.cls-2{clip-path:url(#clip-path);clip-rule:evenodd;}.cls-3{fill:#094c11;opacity:0.87;}.cls-4{fill:#65e070;opacity:0.36;}.cls-5,.cls-8{fill:#fff;}.cls-5{opacity:0.54;}.cls-6{fill:#ad1c1c;opacity:0.9;}.cls-7{fill:#cc1717;opacity:0.83;}.cls-9{fill:url(#linear-gradient);}</style><clipPath id="clip-path"><rect id="SVGID" class="cls-1" x="241.68" y="863.02" width="200" height="200"/></clipPath><clipPath id="clip-path-2"><path id="SVGID-2" data-name="SVGID" class="cls-2" d="M341.68,1063a100,100,0,1,0-100-100,100,100,0,0,0,100,100Zm0,0"/></clipPath><linearGradient id="linear-gradient" x1="905.39" y1="33.51" x2="1512.92" y2="641.04" gradientTransform="translate(-116.78 188.6) scale(0.39)" gradientUnits="userSpaceOnUse"><stop offset="0" stop-color="#517fa6"/><stop offset="1" stop-color="#426699"/></linearGradient></defs><title>SocialApps</title><circle class="cls-3" cx="353.15" cy="319.09" r="218.5"/><circle class="cls-4" cx="391.65" cy="389.59" r="185"/><circle class="cls-5" cx="364.15" cy="266.09" r="96.5"/><circle class="cls-5" cx="480.15" cy="382.09" r="96.5"/><circle class="cls-5" cx="375.15" cy="475.09" r="96.5"/><circle class="cls-6" cx="231.65" cy="318.59" r="168"/><circle class="cls-7" cx="375.15" cy="217.09" r="151.5"/><circle cx="353.65" cy="319.59" r="175"/><circle class="cls-8" cx="347.5" cy="319.5" r="58.5"/><path class="cls-9" d="M389.75,233H317.61A49.92,49.92,0,0,0,267.69,283v72.14A49.92,49.92,0,0,0,317.61,405h72.14a49.81,49.81,0,0,0,38.11-17.67h0a49.73,49.73,0,0,0,11.81-32.25V283A49.92,49.92,0,0,0,389.75,233ZM330,352.79H311.41V296.85H330Zm-9.29-63.57h-.13c-6.24,0-10.28-4.3-10.28-9.67s4.16-9.66,10.53-9.66,10.27,4.17,10.4,9.66S327.19,289.22,320.71,289.22Zm76.35,63.57H378.47V322.87c0-7.52-2.7-12.65-9.43-12.65-5.13,0-8.19,3.45-9.54,6.8a12.7,12.7,0,0,0-.62,4.53v31.24H340.29s.25-50.69,0-55.94h18.59v7.93c2.47-3.8,6.89-9.24,16.77-9.24,12.24,0,21.41,8,21.41,25.18v32.07Z"/></svg>