<svg id="Layer_1" data-name="Layer 1" xmlns="http://www.w3.org/2000/svg" xmlns:xlink="http://www.w3.org/1999/xlink" viewBox="0 0 640 640"><defs><style>.cls-1,.cls-2,.cls-3,.cls-4{fill:none;}.cls-2{clip-path:url(#clip-path);}.cls-2,.cls-3{clip-rule:evenodd;}.cls-3{clip-path:url(#clip-path-2);}.cls-4{clip-path:url(#clip-path-3);}.cls-5{fill:#094c11;opacity:0.87;}.cls-6{fill:#65e070;opacity:0.36;}.cls-13,.cls-7{fill:#fff;}.cls-7{opacity:0.54;}.cls-8{fill:#ad1c1c;opacity:0.9;}.cls-9{fill:#cc1717;opacity:0.83;}.cls-10{clip-path:url(#clip-path-6);}.cls-11{fill:#df0016;}.cls-12{clip-path:url(#clip-path-7);}.cls-14{clip-path:url(#clip-path-8);}</style><clipPath id="clip-path"><rect id="SVGID" class="cls-1" x="241.68" y="203.02" width="200" height="200"/></clipPath><clipPath id="clip-path-2"><path id="SVGID-2" data-name="SVGID" class="cls-2" d="M341.68,403a100,100,0,1,0-100-100,100,100,0,0,0,100,100Zm0,0"/></clipPath><clipPath id="clip-path-3"><path id="SVGID-3" data-name="SVGID" class="cls-3" d="M-232.32-2347h2000V4333h-2000Zm0,0"/></clipPath><clipPath id="clip-path-6"><rect id="SVGID-6" data-name="SVGID" class="cls-4" x="241.68" y="-388.98" width="612" height="792"/></clipPath><clipPath id="clip-path-7"><path id="SVGID-7" data-name="SVGID" class="cls-2" d="M297.56,255.89v34q7.77-9.27,18.58-9.28a23.06,23.06,0,0,1,10,2.11,16.34,16.34,0,0,1,6.73,5.36,19.57,19.57,0,0,1,3.09,7.25,65.22,65.22,0,0,1,.83,12.31V344H320.71V311.27c0-6.5-.29-10.62-.9-12.37a8.05,8.05,0,0,0-3.23-4.16,10.11,10.11,0,0,0-5.81-1.57,13,13,0,0,0-7.14,2,11.36,11.36,0,0,0-4.62,6q-1.47,4-1.45,11.82l0,31.06H281.47V255.89h16.09"/></clipPath><clipPath id="clip-path-8"><path id="SVGID-8" data-name="SVGID" class="cls-2" d="M360.92,255.89v34q7.77-9.27,18.58-9.28a23.21,23.21,0,0,1,10,2.11,16.34,16.34,0,0,1,6.71,5.36,19.57,19.57,0,0,1,3.09,7.25,66.09,66.09,0,0,1,.83,12.31V344H384.08V311.27q0-9.75-.91-12.37a8,8,0,0,0-3.24-4.16,10.07,10.07,0,0,0-5.81-1.57,13,13,0,0,0-7.13,2,11.56,11.56,0,0,0-4.62,6q-1.44,4-1.45,11.82V344H344.85V255.89h16.07"/></clipPath></defs><title>wwwwwwww</title><circle class="cls-5" cx="343.15" cy="304.09" r="218.5"/><circle class="cls-6" cx="381.65" cy="374.59" r="185"/><circle class="cls-7" cx="354.15" cy="251.09" r="96.5"/><circle class="cls-7" cx="470.15" cy="367.09" r="96.5"/><circle class="cls-7" cx="365.15" cy="460.09" r="96.5"/><circle class="cls-8" cx="221.65" cy="303.59" r="168"/><circle class="cls-9" cx="365.15" cy="202.09" r="151.5"/><circle cx="343.65" cy="304.59" r="175"/><g class="cls-10"><rect class="cls-11" x="231.68" y="193.02" width="220" height="220"/></g><g class="cls-12"><rect class="cls-13" x="271.47" y="245.89" width="75.33" height="108.14"/></g><g class="cls-14"><rect class="cls-13" x="334.85" y="245.89" width="75.31" height="108.14"/></g></svg>