<svg id="Layer_1" data-name="Layer 1" xmlns="http://www.w3.org/2000/svg" xmlns:xlink="http://www.w3.org/1999/xlink" viewBox="0 0 640 640"><defs><style>.cls-1,.cls-2{fill:none;}.cls-2{clip-path:url(#clip-path);clip-rule:evenodd;}.cls-3{fill:#094c11;opacity:0.87;}.cls-4{fill:#65e070;opacity:0.36;}.cls-5,.cls-8{fill:#fff;}.cls-5{opacity:0.54;}.cls-6{fill:#ad1c1c;opacity:0.9;}.cls-7{fill:#cc1717;opacity:0.83;}.cls-10,.cls-9{fill:#181616;}.cls-9{fill-rule:evenodd;}</style><clipPath id="clip-path"><rect id="SVGID" class="cls-1" x="241.68" y="863.02" width="200" height="200"/></clipPath><clipPath id="clip-path-2"><path id="SVGID-2" data-name="SVGID" class="cls-2" d="M341.68,1063a100,100,0,1,0-100-100,100,100,0,0,0,100,100Zm0,0"/></clipPath></defs><title>wwwwwwww</title><circle class="cls-3" cx="353.15" cy="319.09" r="218.5"/><circle class="cls-4" cx="391.65" cy="389.59" r="185"/><circle class="cls-5" cx="364.15" cy="266.09" r="96.5"/><circle class="cls-5" cx="480.15" cy="382.09" r="96.5"/><circle class="cls-5" cx="375.15" cy="475.09" r="96.5"/><circle class="cls-6" cx="231.65" cy="318.59" r="168"/><circle class="cls-7" cx="375.15" cy="217.09" r="151.5"/><circle cx="353.65" cy="319.59" r="175"/><circle class="cls-8" cx="354" cy="317" r="125"/><path class="cls-9" d="M351.93,231.89a83.08,83.08,0,0,0-26.26,161.89c4.15.77,5.68-1.8,5.68-4,0-2-.08-8.52-.12-15.47-23.1,5-28-9.8-28-9.8-3.78-9.6-9.22-12.15-9.22-12.15-7.54-5.16.56-5.06.56-5.06,8.34.58,12.74,8.56,12.74,8.56,7.41,12.7,19.43,9,24.17,6.9.75-5.36,2.9-9,5.28-11.1-18.46-2.12-37.85-9.23-37.85-41.05a32.13,32.13,0,0,1,8.56-22.3c-.86-2.1-3.71-10.54.8-22,0,0,7-2.23,22.85,8.52a78.72,78.72,0,0,1,41.6,0c15.85-10.75,22.82-8.52,22.82-8.52,4.52,11.45,1.68,19.89.81,22a32.13,32.13,0,0,1,8.55,22.3c0,31.9-19.42,38.92-37.93,41,3,2.57,5.64,7.63,5.64,15.38,0,11.11-.1,20.06-.1,22.8,0,2.21,1.5,4.79,5.71,4a83.08,83.08,0,0,0-26.31-161.88Z"/><path class="cls-10" d="M300.34,351.15c-.18.42-.83.53-1.42.27s-.95-.84-.75-1.25.83-.53,1.43-.27.95.84.74,1.26Z"/><path class="cls-10" d="M303.69,354.9c-.39.37-1.17.2-1.69-.38s-.65-1.35-.25-1.73,1.16-.19,1.71.39.65,1.35.23,1.72Z"/><path class="cls-10" d="M307,359.69c-.51.35-1.33,0-1.86-.72a1.42,1.42,0,0,1,0-2c.5-.35,1.33,0,1.86.7A1.46,1.46,0,0,1,307,359.69Z"/><path class="cls-10" d="M311.46,364.31a1.55,1.55,0,0,1-2.13-.32c-.71-.68-.93-1.62-.48-2.13s1.44-.36,2.16.32.94,1.63.45,2.13Z"/><path class="cls-10" d="M317.64,367c-.2.66-1.14.95-2.08.67s-1.55-1-1.36-1.7,1.13-1,2.08-.67S317.83,366.33,317.64,367Z"/><path class="cls-10" d="M324.44,367.49c0,.69-.77,1.26-1.76,1.27s-1.8-.53-1.81-1.21.78-1.25,1.78-1.27,1.79.53,1.79,1.21Z"/><path class="cls-10" d="M330.77,366.42c.12.66-.57,1.35-1.55,1.53s-1.86-.23-2-.89.58-1.38,1.54-1.55S330.65,365.74,330.77,366.42Z"/></svg>