<svg id="Layer_1" data-name="Layer 1" xmlns="http://www.w3.org/2000/svg" xmlns:xlink="http://www.w3.org/1999/xlink" viewBox="0 0 640 640"><defs><style>.cls-1,.cls-2{fill:none;}.cls-2{clip-path:url(#clip-path);clip-rule:evenodd;}.cls-3{fill:#094c11;opacity:0.87;}.cls-4{fill:#65e070;opacity:0.36;}.cls-5,.cls-9{fill:#fff;}.cls-5{opacity:0.54;}.cls-6{fill:#ad1c1c;opacity:0.9;}.cls-7{fill:#cc1717;opacity:0.83;}.cls-8{fill:#07f;}</style><clipPath id="clip-path"><rect id="SVGID" class="cls-1" x="901.68" y="203.02" width="200" height="200"/></clipPath><clipPath id="clip-path-2"><path id="SVGID-2" data-name="SVGID" class="cls-2" d="M1001.68,403a100,100,0,1,0-100-100,100,100,0,0,0,100,100Zm0,0"/></clipPath></defs><title>wwwwwwww</title><circle class="cls-3" cx="360.15" cy="316.09" r="218.5"/><circle class="cls-4" cx="398.65" cy="386.59" r="185"/><circle class="cls-5" cx="371.15" cy="263.09" r="96.5"/><circle class="cls-5" cx="487.15" cy="379.09" r="96.5"/><circle class="cls-5" cx="382.15" cy="472.09" r="96.5"/><circle class="cls-6" cx="238.65" cy="315.59" r="168"/><circle class="cls-7" cx="382.15" cy="214.09" r="151.5"/><circle cx="360.65" cy="316.59" r="175"/><path class="cls-8" d="M273.68,311.45c0-40.27,0-60.41,12.51-72.92S318.84,226,359.11,226h7.12c40.27,0,60.41,0,72.92,12.51s12.51,32.65,12.51,72.92v7.12c0,40.27,0,60.41-12.51,72.92S406.5,404,366.23,404h-7.12c-40.27,0-60.41,0-72.92-12.51s-12.51-32.65-12.51-72.92Z"/><path class="cls-9" d="M368.38,354.24c-40.56,0-63.7-27.81-64.66-74.08H324c.67,34,15.65,48.35,27.52,51.31V280.16h19.13v29.29c11.72-1.26,24-14.61,28.18-29.29H418c-3.19,18.09-16.54,31.44-26,36.93a58.53,58.53,0,0,1,30.48,37.15H401.38c-4.52-14.09-15.79-25-30.7-26.47v26.47Z"/></svg>