<svg id="Layer_1" data-name="Layer 1" xmlns="http://www.w3.org/2000/svg" xmlns:xlink="http://www.w3.org/1999/xlink" viewBox="0 0 640 640"><defs><style>.cls-1,.cls-2{fill:none;}.cls-2{clip-path:url(#clip-path);clip-rule:evenodd;}.cls-3{fill:#094c11;opacity:0.87;}.cls-4{fill:#65e070;opacity:0.36;}.cls-5,.cls-9{fill:#fff;}.cls-5{opacity:0.54;}.cls-6{fill:#ad1c1c;opacity:0.9;}.cls-7{fill:#cc1717;opacity:0.83;}.cls-8{fill:url(#radial-gradient);}</style><clipPath id="clip-path"><rect id="SVGID" class="cls-1" x="901.68" y="863.02" width="200" height="200"/></clipPath><clipPath id="clip-path-2"><path id="SVGID-2" data-name="SVGID" class="cls-2" d="M1001.68,1063a100,100,0,1,0-100-100,100,100,0,0,0,100,100Zm0,0"/></clipPath><radialGradient id="radial-gradient" cx="522.34" cy="786.78" r="47.72" gradientTransform="matrix(5.55, 0, 0, -5.55, -2596.22, 4795.89)" gradientUnits="userSpaceOnUse"><stop offset="0.1" stop-color="#ffd87a"/><stop offset="0.14" stop-color="#fcce78"/><stop offset="0.23" stop-color="#f5b471"/><stop offset="0.34" stop-color="#eb8d65"/><stop offset="0.45" stop-color="#e36058"/><stop offset="0.68" stop-color="#cd3694"/><stop offset="1" stop-color="#6668b0"/></radialGradient></defs><title>wwwwwwww</title><circle class="cls-3" cx="341.15" cy="319.09" r="218.5"/><circle class="cls-4" cx="379.65" cy="389.59" r="185"/><circle class="cls-5" cx="352.15" cy="266.09" r="96.5"/><circle class="cls-5" cx="468.15" cy="382.09" r="96.5"/><circle class="cls-5" cx="363.15" cy="475.09" r="96.5"/><circle class="cls-6" cx="219.65" cy="318.59" r="168"/><circle class="cls-7" cx="363.15" cy="217.09" r="151.5"/><circle cx="341.65" cy="319.59" r="175"/><path class="cls-8" d="M441.52,371.27a45.58,45.58,0,0,1-45.59,45.59H287.43a45.58,45.58,0,0,1-45.59-45.59V262.81a45.64,45.64,0,0,1,45.63-45.63H395.23a46.27,46.27,0,0,1,46.29,46.29Z"/><path class="cls-9" d="M369.45,244.72H313.91a44.59,44.59,0,0,0-44.58,44.57v55.5a44.53,44.53,0,0,0,44.58,44.54h55.5A44.53,44.53,0,0,0,414,344.79v-55.5A44.47,44.47,0,0,0,369.45,244.72Zm30.65,94.73a36,36,0,0,1-36,36H319.25a36,36,0,0,1-36-36V294.6a36,36,0,0,1,36-36H364.1a36,36,0,0,1,36,36Z"/><path class="cls-9" d="M343.63,279.19a38.1,38.1,0,1,0,38.1,38.1A38.08,38.08,0,0,0,343.63,279.19Zm0,61a22.93,22.93,0,1,1,22.93-22.93A22.92,22.92,0,0,1,343.63,340.18Z"/><path class="cls-9" d="M388.81,278.54a9.67,9.67,0,1,1-9.67-9.71A9.67,9.67,0,0,1,388.81,278.54Z"/></svg>